<?xml version="1.0" encoding="UTF-8" standalone="no"?>
<!DOCTYPE svg PUBLIC "-//W3C//DTD SVG 1.1//EN"
 "http://www.w3.org/Graphics/SVG/1.1/DTD/svg11.dtd">
<!-- Generated by graphviz version 3.0.0 (20220226.1711)
 -->
<!-- Title: G Pages: 1 -->
<svg width="3917pt" height="8833pt"
 viewBox="0.00 0.00 282.00 636.00" xmlns="http://www.w3.org/2000/svg" xmlns:xlink="http://www.w3.org/1999/xlink">
<g id="graph0" class="graph" transform="scale(13.8889 13.8889) rotate(0) translate(4 632)">
<title>G</title>
<polygon fill="white" stroke="transparent" points="-4,4 -4,-632 278,-632 278,4 -4,4"/>
<!-- 140302251278096 -->
<g id="node1" class="node">
<title>140302251278096</title>
<polygon fill="none" stroke="black" points="11,-581.5 11,-627.5 263,-627.5 263,-581.5 11,-581.5"/>
<text text-anchor="middle" x="49.5" y="-600.8" font-family="Times,serif" font-size="14.00">InputLayer</text>
<polyline fill="none" stroke="black" points="88,-581.5 88,-627.5 "/>
<text text-anchor="middle" x="115.5" y="-612.3" font-family="Times,serif" font-size="14.00">input:</text>
<polyline fill="none" stroke="black" points="88,-604.5 143,-604.5 "/>
<text text-anchor="middle" x="115.5" y="-589.3" font-family="Times,serif" font-size="14.00">output:</text>
<polyline fill="none" stroke="black" points="143,-581.5 143,-627.5 "/>
<text text-anchor="middle" x="203" y="-612.3" font-family="Times,serif" font-size="14.00">[(None, 28, 28, 1)]</text>
<polyline fill="none" stroke="black" points="143,-604.5 263,-604.5 "/>
<text text-anchor="middle" x="203" y="-589.3" font-family="Times,serif" font-size="14.00">[(None, 28, 28, 1)]</text>
</g>
<!-- 140302251857328 -->
<g id="node2" class="node">
<title>140302251857328</title>
<polygon fill="none" stroke="black" points="0.5,-498.5 0.5,-544.5 273.5,-544.5 273.5,-498.5 0.5,-498.5"/>
<text text-anchor="middle" x="31.5" y="-517.8" font-family="Times,serif" font-size="14.00">Conv2D</text>
<polyline fill="none" stroke="black" points="62.5,-498.5 62.5,-544.5 "/>
<text text-anchor="middle" x="81.5" y="-517.8" font-family="Times,serif" font-size="14.00">relu</text>
<polyline fill="none" stroke="black" points="100.5,-498.5 100.5,-544.5 "/>
<text text-anchor="middle" x="128" y="-529.3" font-family="Times,serif" font-size="14.00">input:</text>
<polyline fill="none" stroke="black" points="100.5,-521.5 155.5,-521.5 "/>
<text text-anchor="middle" x="128" y="-506.3" font-family="Times,serif" font-size="14.00">output:</text>
<polyline fill="none" stroke="black" points="155.5,-498.5 155.5,-544.5 "/>
<text text-anchor="middle" x="214.5" y="-529.3" font-family="Times,serif" font-size="14.00">(None, 28, 28, 1)</text>
<polyline fill="none" stroke="black" points="155.5,-521.5 273.5,-521.5 "/>
<text text-anchor="middle" x="214.5" y="-506.3" font-family="Times,serif" font-size="14.00">(None, 28, 28, 16)</text>
</g>
<!-- 140302251278096&#45;&gt;140302251857328 -->
<g id="edge1" class="edge">
<title>140302251278096&#45;&gt;140302251857328</title>
<path fill="none" stroke="black" d="M137,-581.37C137,-573.15 137,-563.66 137,-554.73"/>
<polygon fill="black" stroke="black" points="140.5,-554.61 137,-544.61 133.5,-554.61 140.5,-554.61"/>
</g>
<!-- 140302251859008 -->
<g id="node3" class="node">
<title>140302251859008</title>
<polygon fill="none" stroke="black" points="0,-415.5 0,-461.5 274,-461.5 274,-415.5 0,-415.5"/>
<text text-anchor="middle" x="50.5" y="-434.8" font-family="Times,serif" font-size="14.00">MaxPooling2D</text>
<polyline fill="none" stroke="black" points="101,-415.5 101,-461.5 "/>
<text text-anchor="middle" x="128.5" y="-446.3" font-family="Times,serif" font-size="14.00">input:</text>
<polyline fill="none" stroke="black" points="101,-438.5 156,-438.5 "/>
<text text-anchor="middle" x="128.5" y="-423.3" font-family="Times,serif" font-size="14.00">output:</text>
<polyline fill="none" stroke="black" points="156,-415.5 156,-461.5 "/>
<text text-anchor="middle" x="215" y="-446.3" font-family="Times,serif" font-size="14.00">(None, 28, 28, 16)</text>
<polyline fill="none" stroke="black" points="156,-438.5 274,-438.5 "/>
<text text-anchor="middle" x="215" y="-423.3" font-family="Times,serif" font-size="14.00">(None, 14, 14, 16)</text>
</g>
<!-- 140302251857328&#45;&gt;140302251859008 -->
<g id="edge2" class="edge">
<title>140302251857328&#45;&gt;140302251859008</title>
<path fill="none" stroke="black" d="M137,-498.37C137,-490.15 137,-480.66 137,-471.73"/>
<polygon fill="black" stroke="black" points="140.5,-471.61 137,-461.61 133.5,-471.61 140.5,-471.61"/>
</g>
<!-- 140302251859872 -->
<g id="node4" class="node">
<title>140302251859872</title>
<polygon fill="none" stroke="black" points="0.5,-332.5 0.5,-378.5 273.5,-378.5 273.5,-332.5 0.5,-332.5"/>
<text text-anchor="middle" x="31.5" y="-351.8" font-family="Times,serif" font-size="14.00">Conv2D</text>
<polyline fill="none" stroke="black" points="62.5,-332.5 62.5,-378.5 "/>
<text text-anchor="middle" x="81.5" y="-351.8" font-family="Times,serif" font-size="14.00">relu</text>
<polyline fill="none" stroke="black" points="100.5,-332.5 100.5,-378.5 "/>
<text text-anchor="middle" x="128" y="-363.3" font-family="Times,serif" font-size="14.00">input:</text>
<polyline fill="none" stroke="black" points="100.5,-355.5 155.5,-355.5 "/>
<text text-anchor="middle" x="128" y="-340.3" font-family="Times,serif" font-size="14.00">output:</text>
<polyline fill="none" stroke="black" points="155.5,-332.5 155.5,-378.5 "/>
<text text-anchor="middle" x="214.5" y="-363.3" font-family="Times,serif" font-size="14.00">(None, 14, 14, 16)</text>
<polyline fill="none" stroke="black" points="155.5,-355.5 273.5,-355.5 "/>
<text text-anchor="middle" x="214.5" y="-340.3" font-family="Times,serif" font-size="14.00">(None, 14, 14, 32)</text>
</g>
<!-- 140302251859008&#45;&gt;140302251859872 -->
<g id="edge3" class="edge">
<title>140302251859008&#45;&gt;140302251859872</title>
<path fill="none" stroke="black" d="M137,-415.37C137,-407.15 137,-397.66 137,-388.73"/>
<polygon fill="black" stroke="black" points="140.5,-388.61 137,-378.61 133.5,-388.61 140.5,-388.61"/>
</g>
<!-- 140302254404752 -->
<g id="node5" class="node">
<title>140302254404752</title>
<polygon fill="none" stroke="black" points="0,-249.5 0,-295.5 274,-295.5 274,-249.5 0,-249.5"/>
<text text-anchor="middle" x="50.5" y="-268.8" font-family="Times,serif" font-size="14.00">MaxPooling2D</text>
<polyline fill="none" stroke="black" points="101,-249.5 101,-295.5 "/>
<text text-anchor="middle" x="128.5" y="-280.3" font-family="Times,serif" font-size="14.00">input:</text>
<polyline fill="none" stroke="black" points="101,-272.5 156,-272.5 "/>
<text text-anchor="middle" x="128.5" y="-257.3" font-family="Times,serif" font-size="14.00">output:</text>
<polyline fill="none" stroke="black" points="156,-249.5 156,-295.5 "/>
<text text-anchor="middle" x="215" y="-280.3" font-family="Times,serif" font-size="14.00">(None, 14, 14, 32)</text>
<polyline fill="none" stroke="black" points="156,-272.5 274,-272.5 "/>
<text text-anchor="middle" x="215" y="-257.3" font-family="Times,serif" font-size="14.00">(None, 7, 7, 32)</text>
</g>
<!-- 140302251859872&#45;&gt;140302254404752 -->
<g id="edge4" class="edge">
<title>140302251859872&#45;&gt;140302254404752</title>
<path fill="none" stroke="black" d="M137,-332.37C137,-324.15 137,-314.66 137,-305.73"/>
<polygon fill="black" stroke="black" points="140.5,-305.61 137,-295.61 133.5,-305.61 140.5,-305.61"/>
</g>
<!-- 140302254406000 -->
<g id="node6" class="node">
<title>140302254406000</title>
<polygon fill="none" stroke="black" points="30.5,-166.5 30.5,-212.5 243.5,-212.5 243.5,-166.5 30.5,-166.5"/>
<text text-anchor="middle" x="57.5" y="-185.8" font-family="Times,serif" font-size="14.00">Flatten</text>
<polyline fill="none" stroke="black" points="84.5,-166.5 84.5,-212.5 "/>
<text text-anchor="middle" x="112" y="-197.3" font-family="Times,serif" font-size="14.00">input:</text>
<polyline fill="none" stroke="black" points="84.5,-189.5 139.5,-189.5 "/>
<text text-anchor="middle" x="112" y="-174.3" font-family="Times,serif" font-size="14.00">output:</text>
<polyline fill="none" stroke="black" points="139.5,-166.5 139.5,-212.5 "/>
<text text-anchor="middle" x="191.5" y="-197.3" font-family="Times,serif" font-size="14.00">(None, 7, 7, 32)</text>
<polyline fill="none" stroke="black" points="139.5,-189.5 243.5,-189.5 "/>
<text text-anchor="middle" x="191.5" y="-174.3" font-family="Times,serif" font-size="14.00">(None, 1568)</text>
</g>
<!-- 140302254404752&#45;&gt;140302254406000 -->
<g id="edge5" class="edge">
<title>140302254404752&#45;&gt;140302254406000</title>
<path fill="none" stroke="black" d="M137,-249.37C137,-241.15 137,-231.66 137,-222.73"/>
<polygon fill="black" stroke="black" points="140.5,-222.61 137,-212.61 133.5,-222.61 140.5,-222.61"/>
</g>
<!-- 140302254406624 -->
<g id="node7" class="node">
<title>140302254406624</title>
<polygon fill="none" stroke="black" points="21,-83.5 21,-129.5 253,-129.5 253,-83.5 21,-83.5"/>
<text text-anchor="middle" x="46" y="-102.8" font-family="Times,serif" font-size="14.00">Dense</text>
<polyline fill="none" stroke="black" points="71,-83.5 71,-129.5 "/>
<text text-anchor="middle" x="90" y="-102.8" font-family="Times,serif" font-size="14.00">relu</text>
<polyline fill="none" stroke="black" points="109,-83.5 109,-129.5 "/>
<text text-anchor="middle" x="136.5" y="-114.3" font-family="Times,serif" font-size="14.00">input:</text>
<polyline fill="none" stroke="black" points="109,-106.5 164,-106.5 "/>
<text text-anchor="middle" x="136.5" y="-91.3" font-family="Times,serif" font-size="14.00">output:</text>
<polyline fill="none" stroke="black" points="164,-83.5 164,-129.5 "/>
<text text-anchor="middle" x="208.5" y="-114.3" font-family="Times,serif" font-size="14.00">(None, 1568)</text>
<polyline fill="none" stroke="black" points="164,-106.5 253,-106.5 "/>
<text text-anchor="middle" x="208.5" y="-91.3" font-family="Times,serif" font-size="14.00">(None, 16)</text>
</g>
<!-- 140302254406000&#45;&gt;140302254406624 -->
<g id="edge6" class="edge">
<title>140302254406000&#45;&gt;140302254406624</title>
<path fill="none" stroke="black" d="M137,-166.37C137,-158.15 137,-148.66 137,-139.73"/>
<polygon fill="black" stroke="black" points="140.5,-139.61 137,-129.61 133.5,-139.61 140.5,-139.61"/>
</g>
<!-- 140302254436512 -->
<g id="node8" class="node">
<title>140302254436512</title>
<polygon fill="none" stroke="black" points="16,-0.5 16,-46.5 258,-46.5 258,-0.5 16,-0.5"/>
<text text-anchor="middle" x="41" y="-19.8" font-family="Times,serif" font-size="14.00">Dense</text>
<polyline fill="none" stroke="black" points="66,-0.5 66,-46.5 "/>
<text text-anchor="middle" x="96.5" y="-19.8" font-family="Times,serif" font-size="14.00">softmax</text>
<polyline fill="none" stroke="black" points="127,-0.5 127,-46.5 "/>
<text text-anchor="middle" x="154.5" y="-31.3" font-family="Times,serif" font-size="14.00">input:</text>
<polyline fill="none" stroke="black" points="127,-23.5 182,-23.5 "/>
<text text-anchor="middle" x="154.5" y="-8.3" font-family="Times,serif" font-size="14.00">output:</text>
<polyline fill="none" stroke="black" points="182,-0.5 182,-46.5 "/>
<text text-anchor="middle" x="220" y="-31.3" font-family="Times,serif" font-size="14.00">(None, 16)</text>
<polyline fill="none" stroke="black" points="182,-23.5 258,-23.5 "/>
<text text-anchor="middle" x="220" y="-8.3" font-family="Times,serif" font-size="14.00">(None, 10)</text>
</g>
<!-- 140302254406624&#45;&gt;140302254436512 -->
<g id="edge7" class="edge">
<title>140302254406624&#45;&gt;140302254436512</title>
<path fill="none" stroke="black" d="M137,-83.37C137,-75.15 137,-65.66 137,-56.73"/>
<polygon fill="black" stroke="black" points="140.5,-56.61 137,-46.61 133.5,-56.61 140.5,-56.61"/>
</g>
</g>
</svg>
